<?xml version="1.0" ?><svg id="Layer_1_1_" style="enable-background:new 0 0 64 64;" version="1.1" viewBox="0 0 64 64" xml:space="preserve" xmlns="http://www.w3.org/2000/svg" xmlns:xlink="http://www.w3.org/1999/xlink"><path d="M37.352,37.025c-1.584-1.076-3.444-1.643-5.384-1.643c-0.018,0-0.036,0-0.054,0c-1.986,0.011-3.859,0.592-5.416,1.68  l1.145,1.64c1.224-0.854,2.704-1.311,4.282-1.32c1.541-0.002,3.041,0.44,4.304,1.297L37.352,37.025z"/><path d="M39.546,33.604c-2.231-1.455-4.853-2.222-7.586-2.222c-0.018,0-0.036,0-0.054,0c-2.738,0.011-5.367,0.786-7.603,2.242  l1.092,1.676c1.912-1.246,4.166-1.909,6.519-1.918c2.376-0.004,4.622,0.647,6.54,1.898L39.546,33.604z"/><path d="M28.666,40.284L29.693,42c1.352-0.81,3.132-0.802,4.47-0.016l1.014-1.724C33.219,39.109,30.632,39.105,28.666,40.284z"/><circle cx="32" cy="49" r="3"/><path d="M44,53v-2c0-1.105-0.895-2-2-2s-2,0.895-2,2v2c0,0.931,0.639,1.706,1.5,1.929V58H37v-3c0-1.657-1.343-3-3-3h-2h-2  c-1.657,0-3,1.343-3,3v3h-4.5v-3.071C23.361,54.706,24,53.931,24,53v-2c0-1.105-0.895-2-2-2s-2,0.895-2,2v2  c0,0.931,0.639,1.706,1.5,1.929V58H20v5h24v-5h-1.5v-3.071C43.361,54.706,44,53.931,44,53z"/><path d="M18.665,4.199l0.67,1.884C23.163,4.72,27.542,4,32,4s8.837,0.72,12.665,2.083l0.67-1.884C41.295,2.76,36.684,2,32,2  S22.705,2.76,18.665,4.199z"/><path d="M7,19H5c0,6.951,6.575,13.13,16.751,15.743l0.498-1.938C12.985,30.428,7,25.009,7,19z"/><path d="M40.778,33.041l0.443,1.95C51.855,32.576,59,26.15,59,19h-2C57,25.195,50.481,30.837,40.778,33.041z"/><path d="M32.501,17.5h4.988c-0.03-1.474-0.177-2.919-0.456-4.3c-1.436,0.194-2.96,0.304-4.532,0.324V17.5z"/><path d="M35.822,9.204c-1.018,0.168-2.144,0.265-3.321,0.287v3.033c1.49-0.019,2.932-0.121,4.292-0.3  c-0.262-1.05-0.571-2.071-0.976-3.018L35.822,9.204z"/><path d="M27.375,8.025C28.699,8.327,30.317,8.5,32,8.5s3.301-0.173,4.625-0.475C35.217,7.374,33.654,7,32,7  S28.783,7.374,27.375,8.025z"/><path d="M32.501,26.509c1.178,0.022,2.304,0.12,3.323,0.288c0.399-0.938,0.706-1.949,0.966-2.988  c-1.359-0.179-2.801-0.281-4.289-0.3V26.509z"/><path d="M26.972,22.832c1.435-0.194,2.957-0.303,4.526-0.323V18.5h-4.988C26.54,19.986,26.69,21.441,26.972,22.832z"/><path d="M43,18.5h-4.497c-0.029,1.535-0.187,3.041-0.475,4.483c1.201,0.201,2.327,0.463,3.35,0.781  C42.333,22.22,42.913,20.426,43,18.5z"/><path d="M37.49,18.5h-4.989v4.009c1.571,0.019,3.094,0.129,4.529,0.323C37.311,21.441,37.461,19.986,37.49,18.5z"/><path d="M41.394,12.263c-1.026,0.32-2.156,0.584-3.363,0.786c0.286,1.432,0.443,2.927,0.472,4.451H43  C42.913,15.585,42.339,13.801,41.394,12.263z"/><path d="M37.893,8.714c-0.338,0.107-0.694,0.207-1.077,0.294c0.402,0.971,0.739,1.995,1,3.064c1.065-0.177,2.068-0.403,2.987-0.674  C40.003,10.337,39.019,9.427,37.893,8.714z"/><path d="M26.511,17.5h4.988v-3.977c-1.573-0.019-3.097-0.13-4.534-0.324C26.687,14.581,26.54,16.026,26.511,17.5z"/><path d="M31.499,26.509v-3c-1.488,0.019-2.928,0.121-4.287,0.299c0.261,1.039,0.568,2.05,0.967,2.988  C29.197,26.628,30.323,26.531,31.499,26.509z"/><path d="M23.216,24.629c0.797,1.049,1.773,1.95,2.89,2.657c0.337-0.107,0.692-0.206,1.073-0.293  c-0.398-0.961-0.732-1.975-0.992-3.033C25.128,24.135,24.132,24.36,23.216,24.629z"/><path d="M37.814,23.96c-0.259,1.058-0.593,2.072-0.991,3.034c0.38,0.087,0.734,0.186,1.07,0.292c1.117-0.707,2.094-1.608,2.89-2.657  C39.869,24.36,38.873,24.136,37.814,23.96z"/><path d="M21,17.5h4.497c0.029-1.524,0.185-3.02,0.47-4.452c-1.206-0.202-2.336-0.466-3.361-0.786  C21.661,13.801,21.087,15.585,21,17.5z"/><path d="M27.376,27.976C28.784,28.626,30.346,29,32,29s3.216-0.374,4.624-1.024C35.301,27.673,33.682,27.5,32,27.5  S28.699,27.673,27.376,27.976z"/><path d="M31.499,12.523V9.491c-1.176-0.022-2.302-0.119-3.32-0.287c-0.404,0.947-0.713,1.969-0.975,3.019  C28.565,12.403,30.008,12.505,31.499,12.523z"/><path d="M22.622,23.764c1.023-0.318,2.149-0.58,3.352-0.781c-0.289-1.442-0.448-2.947-0.477-4.483H21  C21.087,20.426,21.667,22.22,22.622,23.764z"/><path d="M23.197,11.398c0.918,0.271,1.92,0.497,2.985,0.674c0.261-1.069,0.597-2.093,0.999-3.064  c-0.382-0.087-0.736-0.186-1.073-0.293C24.981,9.427,23.997,10.337,23.197,11.398z"/><path d="M9,17c4.418,0,8-3.582,8-8s-3.582-8-8-8S1,4.582,1,9S4.582,17,9,17z M8,10h1c-1.657,0-3-1.343-3-3s1.343-3,3-3s3,1.343,3,3  s-1.343,3-3,3h1c2.177,0,3.939,1.741,3.99,3.905C12.72,15.197,10.955,16,9,16c-1.955,0-3.72-0.803-4.99-2.095  C4.061,11.741,5.823,10,8,10z"/><path d="M55,1c-4.418,0-8,3.582-8,8s3.582,8,8,8s8-3.582,8-8S59.418,1,55,1z M55,16c-1.955,0-3.72-0.803-4.99-2.095  C50.061,11.741,51.823,10,54,10h1c-1.657,0-3-1.343-3-3s1.343-3,3-3s3,1.343,3,3s-1.343,3-3,3h1c2.177,0,3.939,1.741,3.99,3.905  C58.72,15.197,56.955,16,55,16z"/></svg>