<svg version="1.1" id="Layer_1" xmlns="http://www.w3.org/2000/svg" x="0" y="0" viewBox="0 0 2250 1300" xml:space="preserve"><style type="text/css">.st0{display:none;fill:#fff}.st1{fill:#f26522}.st2{fill:#002b64}</style><path class="st0" d="M2373-193.4v1434c0 38.1-30.9 69-69 69H-49.9c-38.1 0-69-30.9-69-69v-1434H2373z"/><g id="_Group_"><path id="_Path_" class="st1" d="M1240.8 294.6c0 20.6-16.6 37.2-37.2 37.3s-37.2-16.6-37.3-37.2 16.6-37.2 37.2-37.3h.1c20.5.1 37.2 16.7 37.2 37.2"/><path id="_Path_2" class="st1" d="M1887.6 925.2c0 61.5-49.9 111.3-111.3 111.3-61.5 0-111.3-49.9-111.3-111.3s49.8-111.3 111.3-111.3c61.4 0 111.2 49.8 111.3 111.3"/><path id="_Path_3" class="st2" d="M1776.2 283.5l-408.1 742h183.7l224.4-408.1 224.5 408.1h183.6z"/><path id="_Path_4" class="st2" d="M1283.6 432.4v61c0 4.7-3.6 9.9-6.4 12.3-4.6 2.3-6 3.5-11.9 3.5s-12-1.1-18-6.5-7.6-10.7-7.6-16.9v-53.4h-66.4v61c0 10.5-8.1 15.8-19.9 15.8-6.1-1-12-3.1-17.4-6.2-5.4-5.2-8.2-11-8.2-17.2v-53.4h-68.6v49.7c0 7.8-1.5 13-4.6 15.7 0 0-7.2 4.6-13.7 4.6h-55c-9.8-.6-15.7-.5-20-3.8-3.6-4.3-5.4-13.4-5.4-27.3V284.1h-68.6v206.6c0 19.6 6.4 37.8 19.5 55 7.6 8.7 18 14.9 31.3 18.6 8.9 2.3 18 3.7 27.1 4.4 0 0 64.4.1 74.1.1 8.8-.1 17.6-1.2 26.2-3.2 11.4-4.1 21.8-10.5 30.8-18.7 10.5 10.6 20.5 18.2 29.9 22.8l7.3 3.5 8.7 2.7c4.7 1.2 9.4 1.8 14.2 1.7 19.6 0 37.9-8.5 55-25.6 17.8 17.1 38.1 25.6 60.8 25.6 21.3 0 39.2-7.8 53.7-23.6 14.6-15.7 21.8-37.8 21.8-66.4v-55.4l-68.7.2z"/><path id="_Path_5" class="st2" d="M786 480.5c0 1.1 0 2.7-.2 4.5-.2 2.2-.6 4.3-1.3 6.4l-2.3 5.7c-4.4 3.5-10.2 5.2-17.1 5.2H414.5c-16.1 0-25.6.8-31.7-3.5-4.6-4.7-7-9.7-7-15.4V284.1h-68.6v277c0 15.3-5.9 28-17.8 38C277.5 609 264 614 248.9 614h-56.3c-8.1.1-16.2-1.2-23.8-4-7.9-3.7-14-7.7-18.3-11.9-10.8-10.6-16.2-22.9-16.2-36.9V451.6H65.7v104c0 33.1 11.5 62.6 34.8 88.4s50.9 38.7 83.6 38.7h68c31 0 59.4-11 85.2-33 25.7-22 38.6-50.5 38.7-85.6 5.6 7.7 15.4 7.1 15.4 7.1h388.3c20.8 0 38.4-8.7 53.1-25.9 14.6-17.2 21.9-36.7 21.9-58.5v-53.9H786v47.6z"/><path id="_Path_6" class="st2" d="M769.3 368.8c0 20.2-16.4 36.5-36.5 36.5s-36.5-16.4-36.5-36.5 16.3-36.4 36.5-36.5c20.1 0 36.5 16.3 36.5 36.5"/><path id="_Path_7" class="st2" d="M851.1 368.8c0 20.2-16.3 36.5-36.5 36.5s-36.5-16.3-36.5-36.5c0-20.1 16.3-36.4 36.4-36.5 20.2 0 36.6 16.3 36.6 36.5"/><path id="_Path_8" class="st2" d="M1198.1 369.5c0 20.6-16.6 37.2-37.2 37.3s-37.2-16.6-37.3-37.2 16.6-37.2 37.2-37.3h.1c20.5 0 37.2 16.6 37.2 37.2"/><path id="_Path_9" class="st2" d="M1282.9 369.5c0 20.6-16.6 37.2-37.2 37.3s-37.2-16.6-37.3-37.2 16.6-37.2 37.2-37.3h.1c20.6 0 37.2 16.6 37.2 37.2"/><path id="_Compound_Path_" class="st2" d="M492.2 997.6h-34.5v30.7c0 4.2 3.4 7.6 7.6 7.6h34.5v-30.7c0-4.2-3.4-7.6-7.6-7.6m-51.5 0h-34.6v30.7c0 4.2 3.4 7.6 7.6 7.6h34.5v-30.7c0-4.2-3.4-7.6-7.5-7.6m57.6-262.8v107.9c-1.7 29.3-20.4 48.8-45.4 48.8h-35.8c-25 0-49.2-17.1-49.2-57.5V674.2c-5 6-10.5 11.6-16.5 16.7-8.2 7.1-17.1 13.3-26.6 18.7v225.6c-.1 39.8-32.3 72-72.1 72.1h-63.6c-39.7 0-72.1-28-72.1-62.1V825c0-31.3-29.5-30.5-43-30.5v154.3c0 51.6 56.7 93.8 126 93.8h41.8c69.3 0 126-42.2 126-93.8v-34.7c14 9.4 30.5 14.4 47.4 14.3h37c39.7 0 88.9-33.4 88.9-69.3V698.8c-13.5 0-42.8 3.1-42.8 36m266.3-4.8v113.1c0 29-22.6 48.8-47.5 48.8h-45c-26.2 0-49.8-18.2-49.8-49.7V667.9c0-30.7-29.4-30.7-43-30.7v214.3c0 41.8 44.9 76.9 94.8 76.9H718c48.8 0 89.2-39.5 89.2-72.4V699c-13.6 0-42.6-.6-42.6 31m503.3-86.8H1213c-41.9 0-86.7 28.2-86.7 70.1v91.9h-.1V841c0 20.6-11.8 35.8-36.7 35.8h-6.8v-162c0-41.9-44.7-71.6-86.7-71.6h-54.9c-42 0-86.7 29.7-86.7 71.6v142c0 41.9 44.8 71.6 86.7 71.6H996c14.9 0 30.2-4.3 43.7-11.7l.7-.4v40.2c0 22.7-24.6 43.2-64.6 43.2h-74.2c-26.7 0-33.5 24.3-33.5 36.1h121.1c36.3 0 94.2-25.6 94.2-91V910h9.2c17.3 0 31.9-8 42-21.9 14.9 25.3 52 40.3 82.8 40.3h45.1c42 0 91.9-25.8 91.9-75.9V713.4c.2-41.9-44.5-70.1-86.5-70.2m-228 203.2c0 31.7-19.3 51.5-45.5 51.5h-51.5c-26.2 0-45.5-16.6-45.5-48.2V722.1c0-31.6 19.3-47.8 45.5-47.8h51.5c26.2 0 45.5 16.2 45.5 47.8v124.3zm271.8-2c0 35.2-19.3 53-45.5 53h-51.5c-26.2 0-45.5-14-45.5-49.7V722.1c0-31.6 19.3-48.2 45.5-48.2h51.5c26.2 0 45.5 16.6 45.5 48.2v122.3zM710 997.6h-34.6v30.7c0 4.2 3.4 7.6 7.6 7.6h34.5v-30.7c0-4.2-3.4-7.6-7.5-7.6"/></g></svg>